# xmcd
#
# Track frame offsets: 
#        150
#        20326
#        39897
#        58778
#        78354
#        102429
#        122534
#        142036
#        168286
#        188360
#        210042
#        229320
#        250731
#        272031
#        294240
#        315845
#        335250
#
# Disc length: 4746 seconds
#
# Revision: 0
# Processed by: cddbd v1.4PL0 Copyright (c) Steve Scherf et al.
# Submitted via: ExactAudioCopy v0.95a3
#
DISCID=d5128811
DTITLE=周蕙 - 蕙儿绝版
DYEAR=2003
DGENRE=R&B
TTITLE0=流域
TTITLE1=爱情无关是非
TTITLE2=不想让你知道
TTITLE3=约定
TTITLE4=预言
TTITLE5=替身
TTITLE6=我喜欢
TTITLE7=Angle Face
TTITLE8=话题
TTITLE9=好想好好爱你
TTITLE10=爱过不伤心
TTITLE11=不哭
TTITLE12=体温
TTITLE13=寂寞城市
TTITLE14=Hold Me Tonight
TTITLE15=今宵多珍重
TTITLE16=风铃
EXTD=
EXTT0=
EXTT1=
EXTT2=
EXTT3=
EXTT4=
EXTT5=
EXTT6=
EXTT7=
EXTT8=
EXTT9=
EXTT10=
EXTT11=
EXTT12=
EXTT13=
EXTT14=
EXTT15=
EXTT16=
PLAYORDER=
